<svg xmlns="http://www.w3.org/2000/svg" xmlns:xlink="http://www.w3.org/1999/xlink" width="42" height="42" viewBox="0 0 42 42"><defs><path id="dipda" d="M350 3368.2a16.82 16.82 0 0 0 0 33.64 16.82 16.82 0 1 0 0-33.64s9.26 0 0 0zm0-2.4a19.2 19.2 0 1 1 0 38.4 19.2 19.2 0 0 1 0-38.4zm0 6c.66 0 1.2.54 1.2 1.2v11.51l5.66 5.67a1.2 1.2 0 0 1-1.7 1.7l-5.93-5.95a1.21 1.21 0 0 1-.1-.1 1.2 1.2 0 0 1-.33-.83v-12c0-.66.54-1.2 1.2-1.2z"/></defs><g><g transform="translate(-329 -3364)"><use fill="#fff" xlink:href="#dipda"/></g></g></svg>