<svg xmlns="http://www.w3.org/2000/svg" xmlns:xlink="http://www.w3.org/1999/xlink" width="44" height="40" viewBox="0 0 44 40"><defs><path id="vuw4a" d="M1238.34 3375.35v-4.28h-4.83c-.06 1.15.06 3.17 1.17 4.53.82 1 2.1 1.6 3.8 1.76a14.6 14.6 0 0 1-.14-2.01zm0-8.08c0-.7.57-1.27 1.26-1.27h22.6c.69 0 1.25.57 1.25 1.27v1.27h6.15c.6 0 1.1.42 1.23 1 .03.2.88 4.63-1.57 7.65-1.44 1.78-3.64 2.7-6.56 2.75-1.61 4.8-5.68 8.34-10.56 8.86v8.82h3.88c.7 0 1.26.57 1.26 1.27 0 .7-.56 1.27-1.26 1.27h-10.15c-.7 0-1.26-.57-1.26-1.27 0-.7.56-1.27 1.26-1.27h3.76v-8.82c-4.87-.53-8.93-4.07-10.54-8.87-2.82-.08-4.96-1-6.37-2.74-2.44-3.02-1.6-7.46-1.56-7.64.11-.6.63-1.01 1.23-1.01h5.95zm25.1 8.08c0 .69-.04 1.36-.13 2.03 1.8-.14 3.15-.74 4-1.78 1.1-1.36 1.22-3.38 1.16-4.53h-5.02zm-22.58-6.81v6.8c0 6.07 4.5 11 10.04 11 5.53 0 10.04-4.93 10.04-11v-6.8zm18.92 35.45h-17.66c-.7 0-1.26-.56-1.26-1.26s.56-1.27 1.26-1.27h17.66c.7 0 1.25.57 1.25 1.27 0 .7-.56 1.26-1.25 1.26z"/></defs><g><g transform="translate(-1229 -3365)"><use fill="#fff" xlink:href="#vuw4a"/></g></g></svg>