<svg xmlns="http://www.w3.org/2000/svg" xmlns:xlink="http://www.w3.org/1999/xlink" width="25" height="28" viewBox="0 0 25 28"><defs><path id="gnp4a" d="M1362.12 4198.54a.57.57 0 0 1-.48.26h-8.85v-4.8l3.93-2.4a.8.8 0 0 0 .78-.8.8.8 0 0 0-.78-.8l-3.93 2.4v-2.8l2.36-1.2a.8.8 0 0 0 .78-.8.8.8 0 0 0-.78-.8l-2.36 1.2v-1.2a.8.8 0 0 0-.79-.8h-1.57a.8.8 0 0 0-.78.8v5.07l-3.15-1.07a.8.8 0 0 0-.78.8c0 .44.35.8.78.8l3.15 1.07v5.33h-8.85c-.2 0-.38-.1-.48-.26a.6.6 0 0 1-.05-.56l10.44-24.43a.57.57 0 0 1 1.06 0l10.4 24.43a.6.6 0 0 1-.05.56z"/></defs><g><g opacity=".2" transform="translate(-1339 -4172)"><use fill="#062033" xlink:href="#gnp4a"/></g></g></svg>