<svg xmlns="http://www.w3.org/2000/svg" xmlns:xlink="http://www.w3.org/1999/xlink" width="41" height="41" viewBox="0 0 41 41"><defs><path id="qdvsa" d="M646.9 3374.32c-3.37 0-6.59 2.93-6.59 4.64v5c0 1.89.86 5.42 2.85 7.02a2.37 2.37 0 0 1-.35 3.93l-7.67 4.16-.17.08c-.19.09-.42.23-.6.36v2.12h24.94v-2.15a3.41 3.41 0 0 0-.76-.41l-7.48-4.14a2.38 2.38 0 0 1-.33-3.95c2.05-1.6 2.63-5.16 2.63-7.01v-5.01c0-1.75-3.04-4.64-6.47-4.64 0 0 3.37 0 0 0zm0-2.38c4.43 0 8.84 3.7 8.84 7.02v5c0 2.41-.75 6.7-3.53 8.89l7.47 4.13s2 .83 2 2v3.02a2 2 0 0 1-2 2H634a2 2 0 0 1-2-2v-3.01c0-1.11 2-2 2-2l7.67-4.16c-2.8-2.25-3.73-6.68-3.73-8.86v-5.01c0-3.32 4.53-7.02 8.96-7.02zm23.1 21.14v2.97a2 2 0 0 1-2 2h-3.95c-.28-1.04-.5-1.82-1.22-2.37h4.8v-2.1a3.42 3.42 0 0 0-.77-.42l-7.59-4.14a2.38 2.38 0 0 1-.33-3.94c2.05-1.62 2.74-5.16 2.74-7.02v-5.01c0-1.75-3.15-4.68-6.58-4.68a7.4 7.4 0 0 0-4.55 1.55c-.93-.3-2.01-.3-2.99-.35 1.71-2 4.66-3.57 7.54-3.57 4.43 0 8.95 3.73 8.95 7.05v5c0 2.41-.86 6.7-3.64 8.89l7.58 4.14s2.01.82 2.01 2z"/></defs><g><g transform="translate(-630 -3364)"><use fill="#fff" xlink:href="#qdvsa"/></g></g></svg>